# xmcd CD database file
#
# Track frame offsets:
#	150
#	24087
#	34118
#	47911
#	57691
#	70759
#	83465
#	96311
#	107484
#	125651
#	141199
#	154351
#	170902
#	185029
#	185738
#	195534
#	206930
#	221615
#	232259
#
# Disc length: 3185 seconds
#
# Revision: 0
# Processed by: cddbd v1.4PL0 Copyright (c) Steve Scherf et al.
# Submitted via: CDex 1.50beta9
#
DISCID=260c6f13
DTITLE=CURTIS MAGEE - 21 FANTASTIC SONGS
DYEAR=1900
DGENRE=Country
TTITLE0=MEDLEY-MARY -YOU'LL DO FOR ME-FALLING IN LOVE - MY WORLD'S COME DOWN
TTITLE1=LOVES GONNA LIVE HERE
TTITLE2=HAVE I TOLD YOU LATELY THAT I LOVE YOU
TTITLE3=A WORLD OF OUR OWN
TTITLE4=I LOVE YOU BECAUSE
TTITLE5=CAN'T HELP FALLING IN LOVE
TTITLE6=HOLLO DARLING
TTITLE7=LET YOUR LOVE FLOW
TTITLE8=I JUST CALL ED TO SAY I LOVE YOU
TTITLE9=I CAN'T LOVIN YOU
TTITLE10=I'M LITTLE BIT THER'S LOTS OF ME
TTITLE11=IF I SAID YOU HAD A BEAUTIFUL BODY
TTITLE12=I DON'T KNOW WHY I LOVE YOU
TTITLE13=PLEASE HELP ME I'M FALLING
TTITLE14=I ONY WANT TO BE WITH YOU
TTITLE15=I'LL BE YOUR SWEETHEAT
TTITLE16=I LOVE YOU MORE AND MORE
TTITLE17=IRISH CD
TTITLE18=IRISH CD
EXTD=
EXTT0=
EXTT1=
EXTT2=
EXTT3=
EXTT4=
EXTT5=
EXTT6=
EXTT7=
EXTT8=
EXTT9=
EXTT10=
EXTT11=
EXTT12=
EXTT13=
EXTT14=
EXTT15=
EXTT16=
EXTT17=
EXTT18=
PLAYORDER=
